<svg width="64" height="64" viewBox="0 0 86 86" fill="none" xmlns="http://www.w3.org/2000/svg">
<path d="M38.7349 21.5H38.5683L32.5859 16.7162C32.1095 16.334 31.5171 16.1255 30.9062 16.125H21.5C18.6489 16.125 15.9146 17.2576 13.8986 19.2736C11.8826 21.2896 10.75 24.0239 10.75 26.875V29.5625H29.8662L38.7349 21.5ZM46.7276 21.5L32.7149 34.2387C32.22 34.6886 31.5751 34.9378 30.9062 34.9375H10.75V59.125C10.75 61.9761 11.8826 64.7104 13.8986 66.7264C15.9146 68.7424 18.6489 69.875 21.5 69.875H64.5C67.3511 69.875 70.0854 68.7424 72.1014 66.7264C74.1174 64.7104 75.25 61.9761 75.25 59.125V32.25C75.25 29.3989 74.1174 26.6646 72.1014 24.6486C70.0854 22.6326 67.3511 21.5 64.5 21.5H46.7276Z" fill="#15216B"/>
</svg>
