<svg width="200" height="200" viewBox="0 0 200 200" fill="none" xmlns="http://www.w3.org/2000/svg">
<rect width="200" height="200" fill="white"/>
<path d="M51.3597 75.8491C50.8674 75.2339 50.5012 74.5277 50.2819 73.7709C50.0626 73.0141 49.9945 72.2216 50.0815 71.4385C50.1685 70.6554 50.4089 69.8971 50.789 69.207C51.1691 68.5168 51.6814 67.9083 52.2967 67.4161C52.9127 66.9231 58.5792 62.5326 67.5897 60.2801C76.0632 58.1636 89.1497 57.6266 103.373 67.1091C123.49 80.5191 140.131 67.5486 140.297 67.4161C141.541 66.44 143.12 65.9946 144.691 66.1767C146.262 66.3589 147.697 67.1538 148.685 68.3886C149.673 69.6235 150.134 71.1984 149.966 72.771C149.799 74.3435 149.018 75.7865 147.793 76.7861C147.177 77.2791 141.51 81.6696 132.5 83.9221C129.112 84.7703 125.634 85.2003 122.142 85.2026C114.795 85.2031 105.998 83.2811 96.7167 77.0931C76.5997 63.6821 59.9587 76.6536 59.7927 76.7861C59.1775 77.2784 58.4713 77.6448 57.7145 77.8641C56.9578 78.0835 56.1652 78.1516 55.382 78.0646C54.5989 77.9776 53.8406 77.7372 53.1504 77.357C52.4603 76.9769 51.8518 76.4645 51.3597 75.8491V75.8491ZM140.297 95.4161C140.131 95.5491 123.49 108.519 103.373 95.1091C89.1502 85.6271 76.0632 86.1636 67.5897 88.2801C58.5797 90.5326 52.9127 94.9231 52.2967 95.4161C51.6729 95.9054 51.1524 96.5134 50.765 97.2051C50.3777 97.8968 50.1312 98.6583 50.0399 99.4458C49.9486 100.233 50.0143 101.031 50.2331 101.793C50.4519 102.555 50.8196 103.266 51.3148 103.885C51.81 104.504 52.423 105.019 53.1183 105.4C53.8137 105.78 54.5775 106.019 55.3658 106.103C56.1541 106.187 56.9512 106.114 57.7111 105.888C58.4709 105.662 59.1784 105.287 59.7927 104.786C59.9587 104.653 76.5997 91.6831 96.7167 105.093C105.998 111.281 114.795 113.203 122.142 113.203C125.634 113.201 129.112 112.77 132.5 111.922C141.51 109.67 147.177 105.279 147.793 104.786C149.018 103.786 149.799 102.344 149.966 100.771C150.134 99.1984 149.673 97.6235 148.685 96.3886C147.697 95.1538 146.262 94.3589 144.691 94.1767C143.12 93.9946 141.541 94.44 140.297 95.4161V95.4161ZM140.297 123.416C140.131 123.549 123.49 136.52 103.373 123.109C89.1502 113.627 76.0632 114.164 67.5897 116.28C58.5797 118.533 52.9127 122.923 52.2967 123.416C51.6729 123.905 51.1524 124.513 50.765 125.205C50.3777 125.897 50.1312 126.658 50.0399 127.446C49.9486 128.233 50.0143 129.031 50.2331 129.793C50.4519 130.555 50.8196 131.266 51.3148 131.885C51.81 132.504 52.423 133.019 53.1183 133.4C53.8137 133.78 54.5775 134.019 55.3658 134.103C56.1541 134.187 56.9512 134.114 57.7111 133.888C58.4709 133.662 59.1784 133.287 59.7927 132.786C59.9587 132.654 76.5997 119.683 96.7167 133.093C105.998 139.281 114.795 141.203 122.142 141.203C125.634 141.201 129.112 140.77 132.5 139.922C141.51 137.67 147.177 133.279 147.793 132.786C148.416 132.297 148.937 131.689 149.324 130.997C149.712 130.305 149.958 129.544 150.049 128.756C150.141 127.969 150.075 127.171 149.856 126.409C149.637 125.647 149.27 124.936 148.775 124.317C148.279 123.698 147.666 123.183 146.971 122.803C146.276 122.422 145.512 122.183 144.723 122.099C143.935 122.015 143.138 122.088 142.378 122.315C141.618 122.541 140.911 122.915 140.297 123.416V123.416Z" fill="#3E83DD"/>
</svg>
